# xmcd CD database file
#
# Track frame offsets:
#	150
#	15022
#	32827
#	47877
#	58749
#	70355
#	89532
#	110463
#	118675
#	133555
#	151103
#	162881
#	184713
#	200339
#
# Disc length: 2951 seconds
#
# Revision: 1
# Processed by: cddbd v1.5.2PL0 Copyright (c) Steve Scherf et al.
# Submitted via: CDex 1.70beta2
#
DISCID=b50b850e
DTITLE=Turkkalismuzigi3 - turklasikmuzigi
DYEAR=1900
DGENRE=
TTITLE0=duydumki unutmussun
TTITLE1=Ankara kizlari
TTITLE2=üsküdara gidiriken
TTITLE3=Ud taksimi
TTITLE4=gülenaz
TTITLE5=ham meyvayi kopardilar dalindan
TTITLE6=haydar haydar
TTITLE7=kanun taksimi
TTITLE8=kim dertten icermis
TTITLE9=menekse gözler hülyali
TTITLE10=ada sahillerinde
TTITLE11=bursaimisin
TTITLE12=her mevsim icimden
TTITLE13=yemen türküsü
EXTD=
EXTT0=
EXTT1=
EXTT2=
EXTT3=
EXTT4=
EXTT5=
EXTT6=
EXTT7=
EXTT8=
EXTT9=
EXTT10=
EXTT11=
EXTT12=
EXTT13=
PLAYORDER=
